<svg width="1600" height="1000" viewBox="0 0 1600 1000" fill="none" xmlns="http://www.w3.org/2000/svg">
  <rect width="1600" height="1000" fill="#0F172A"/>
  <rect width="1600" height="1000" fill="url(#bg)"/>
  <circle cx="1270" cy="210" r="220" fill="#38BDF8" fill-opacity="0.28"/>
  <circle cx="330" cy="850" r="280" fill="#F97316" fill-opacity="0.22"/>
  <path d="M0 770C160 700 340 620 540 650C740 680 860 850 1050 860C1240 870 1410 740 1600 610V1000H0V770Z" fill="#020617"/>
  <path d="M0 680C180 620 360 520 590 550C820 580 910 760 1120 760C1330 760 1470 640 1600 530" stroke="#F8FAFC" stroke-opacity="0.24" stroke-width="4"/>
  <rect x="180" y="180" width="420" height="220" rx="36" fill="#FFFFFF" fill-opacity="0.08"/>
  <text x="230" y="280" fill="#F8FAFC" font-family="Arial, sans-serif" font-size="38" font-weight="700">AURORA STAGE</text>
  <text x="230" y="338" fill="#E2E8F0" font-family="Arial, sans-serif" font-size="22">Late-night showcase / city lights / local headliners</text>
  <defs>
    <linearGradient id="bg" x1="240" y1="80" x2="1360" y2="920" gradientUnits="userSpaceOnUse">
      <stop stop-color="#1D4ED8"/>
      <stop offset="0.5" stop-color="#0F172A"/>
      <stop offset="1" stop-color="#7C2D12"/>
    </linearGradient>
  </defs>
</svg>
